<svg xmlns="http://www.w3.org/2000/svg" viewBox="0 0 436.18 273.7"><defs><style>.cls-1{fill:#fff;}</style></defs><title>Recurso 3@x20x</title><g id="Capa_2" data-name="Capa 2"><g id="Capa_2-2" data-name="Capa 2"><path class="cls-1" d="M18.63.2A16.51,16.51,0,0,0,0,16.68V256a16.52,16.52,0,0,0,18.63,16.48c66.53-9.15,117.79-66.61,117.79-136.12S85.16,9.35,18.63.2Z"/><path class="cls-1" d="M175.37.2a16.51,16.51,0,0,0-18.63,16.48V256a16.52,16.52,0,0,0,18.63,16.48c66.53-9.15,117.79-66.61,117.79-136.12S241.9,9.35,175.37.2Z"/><path class="cls-1" d="M389.36,139.76C378.8,136.25,368,144.43,368,155.62v32.86A16.47,16.47,0,0,1,351.56,205h-41.3a9.79,9.79,0,0,0-9.55,11.53A68.38,68.38,0,0,0,368,273.7a67.48,67.48,0,0,0,32.51-8.29q2.89-1.59,5.63-3.44a68,68,0,0,0,7.72-6.12,67.33,67.33,0,0,0,6.77-7.15c.7-.85,1.37-1.71,2-2.59A68.61,68.61,0,0,0,434,222.17a69,69,0,0,0-44.67-82.41Z"/><path class="cls-1" d="M347.5,134c10.51,3.48,21.28-4.64,21.28-15.78V85.3a16.56,16.56,0,0,1,16.5-16.61h41.21A9.79,9.79,0,0,0,436,57.16,68.38,68.38,0,0,0,368.78,0a67.48,67.48,0,0,0-32.51,8.29c-1.93,1.06-3.81,2.21-5.62,3.44A69,69,0,0,0,316.15,25c-.7.85-1.37,1.71-2,2.59A68.94,68.94,0,0,0,347.5,134Z"/></g></g></svg>